<svg width="20" height="20" viewBox="0 0 20 20" fill="none" xmlns="http://www.w3.org/2000/svg">
<g id="cancel_24px">
<path id="icon/navigation/cancel_24px" fill-rule="evenodd" clip-rule="evenodd" d="M9.99984 1.66666C5.3915 1.66666 1.6665 5.39166 1.6665 9.99999C1.6665 14.6083 5.3915 18.3333 9.99984 18.3333C14.6082 18.3333 18.3332 14.6083 18.3332 9.99999C18.3332 5.39166 14.6082 1.66666 9.99984 1.66666ZM9.99984 16.6667C6.32484 16.6667 3.33317 13.675 3.33317 9.99999C3.33317 6.32499 6.32484 3.33332 9.99984 3.33332C13.6748 3.33332 16.6665 6.32499 16.6665 9.99999C16.6665 13.675 13.6748 16.6667 9.99984 16.6667ZM9.99984 8.82499L12.9915 5.83332L14.1665 7.00832L11.1748 9.99999L14.1665 12.9917L12.9915 14.1667L9.99984 11.175L7.00817 14.1667L5.83317 12.9917L8.82484 9.99999L5.83317 7.00832L7.00817 5.83332L9.99984 8.82499Z" fill="#E74C3C"/>
</g>
</svg>
